<svg width="635" height="647" viewBox="0 0 635 647" fill="none" xmlns="http://www.w3.org/2000/svg">
<g filter="url(#filter0_di_1_4633)">
<g style="mix-blend-mode:overlay">
<path d="M423.231 323.637C423.231 322.691 423.19 321.754 423.109 320.828H566.58C583.549 320.828 597.305 307.072 597.305 290.104C597.305 273.135 583.549 259.379 566.58 259.379H345.933V57.1287C345.933 39.3845 331.548 25 313.804 25C296.06 25 281.676 39.3845 281.676 57.1287V259.379H65.8974C48.9288 259.379 35.173 273.135 35.173 290.104C35.173 307.072 48.9288 320.828 65.8974 320.828H197.664C197.351 322.198 197.121 323.601 196.979 325.029C192.028 375.069 183.826 417.762 163.932 453.261C144.233 488.411 112.613 517.286 59.227 538.73C49.2206 542.75 43.2478 551.719 40.9828 560.825C38.7224 569.912 39.7858 580.437 45.3585 588.873C52.7656 600.086 66.3575 604.798 79.1626 600.029C147.295 574.65 190.403 538.296 217.854 492.158C245.121 446.33 256.437 391.663 262.625 330.634C262.968 327.251 262.782 323.958 262.139 320.828H359.705C359.624 321.754 359.583 322.691 359.583 323.637V528.461C359.583 554.848 362.901 575.288 376.048 588.507C389.2 601.73 409.847 605.388 437.36 605.388H437.425H437.491H437.558H437.627H437.697H437.768H437.84H437.913H437.988H438.064H438.141H438.219H438.299H438.379H438.461H438.544H438.628H438.714H438.8H438.888H438.977H439.067H439.158H439.251H439.344H439.439H439.534H439.631H439.729H439.828H439.928H440.03H440.132H440.235H440.34H440.446H440.552H440.66H440.769H440.879H440.99H441.102H441.215H441.329H441.444H441.56H441.678H441.796H441.915H442.035H442.157H442.279H442.402H442.527H442.652H442.778H442.905H443.034H443.163H443.293H443.424H443.556H443.689H443.823H443.958H444.094H444.231H444.369H444.507H444.647H444.787H444.929H445.071H445.214H445.358H445.503H445.649H445.796H445.944H446.092H446.241H446.392H446.543H446.694H446.847H447.001H447.155H447.31H447.467H447.623H447.781H447.94H448.099H448.259H448.42H448.582H448.744H448.908H449.072H449.237H449.402H449.568H449.736H449.903H450.072H450.241H450.412H450.582H450.754H450.926H451.099H451.273H451.447H451.622H451.798H451.975H452.152H452.33H452.509H452.688H452.868H453.048H453.229H453.411H453.594H453.777H453.961H454.145H454.331H454.516H454.703H454.89H455.077H455.265H455.454H455.643H455.833H456.024H456.215H456.407H456.599H456.792H456.985H457.179H457.374H457.569H457.764H457.961H458.157H458.354H458.552H458.75H458.949H459.148H459.348H459.549H459.749H459.951H460.152H460.354H460.557H460.76H460.964H461.168H461.373H461.578H461.783H461.989H462.195H462.402H462.609H462.817H463.025H463.233H463.442H463.651H463.861H464.071H464.281H464.492H464.703H464.915H465.127H465.339H465.552H465.764H465.978H466.191H466.405H466.62H466.835H467.049H467.265H467.48H467.696H467.913H468.129H468.346H468.563H468.78H468.998H469.216H469.434H469.653H469.872H470.091H470.31H470.529H470.749H470.969H471.189H471.41H471.63H471.851H472.072H472.294H472.515H472.737H472.959H473.181H473.403H473.625H473.848H474.071H474.294H474.517H474.74H474.963H475.187H475.411H475.634H475.858H476.082H476.307H476.531H476.755H476.98H477.204H477.429H477.654H477.879H478.104H478.329H478.554H478.779H479.004H479.23H479.455H479.68H479.906H480.131H480.357H480.582H480.808H481.033H481.259H481.484H481.71H481.936H482.161H482.387H482.612H482.838H483.063H483.289H483.514H483.739H483.965H484.19H484.415H484.64H484.865H485.09H485.315H485.54H485.765H485.99H486.214H486.439H486.663H486.888H487.112H487.336H487.56H487.783H488.007H488.231H488.454H488.677H488.9H489.123H489.346H489.569H489.791H490.013H490.235H490.457H490.679H490.9H491.121H491.342H491.563H491.784H492.004H492.225H492.444H492.664H492.884H493.103H493.322H493.541H493.759H493.977H494.195H494.413H494.63H494.847H495.064H495.28H495.497H495.713H495.928H496.143H496.358H496.573H496.787H497.001H497.215H497.428H497.641H497.854H498.066H498.278H498.489H498.7H498.911H499.121H499.331H499.541H499.75H499.959H500.167H500.375H500.583H500.79H500.996H501.203H501.409H501.614H501.819H502.023H502.227H502.431H502.634H502.837H503.039H503.24H503.442H503.642H503.843H504.042H504.241H504.44H504.638H504.836H505.033H505.23H505.426H505.621H505.816H506.011H506.205H506.398H506.591H506.783H506.975H507.166H507.356H507.546H507.735H507.924H508.112H508.299H508.486H508.673H508.858H509.043H509.228H509.411H509.594H509.777H509.959H510.14H510.32H510.5H510.679H510.858H511.036H511.213H511.389H511.565H511.74H511.914H512.088H512.261H512.433H512.604H512.775H512.945H513.114H513.283H513.451H513.618H513.784H513.949H514.114H514.278H514.441H514.604H514.765H514.926H515.086H515.245H515.404H515.561H515.718H515.874H516.029H516.184H516.337H516.49H516.641H516.792H516.942H517.092H517.24H517.387H517.534H517.68H517.825H517.969H518.112H518.254H518.395H518.535H518.675H518.813H518.951H519.088H519.223H519.358H519.492H519.625H519.757H519.888H520.018H520.147H520.275H520.402H520.528H520.654H520.778H520.901H521.023H521.144H521.264H521.384H521.502H521.619H521.735H521.85H521.964H522.077H522.189H522.299H522.409H522.518H522.626H522.732H522.838H522.942H523.045H523.147H523.249H523.349H523.448H523.545H523.642H523.738H523.832H523.925H524.017H524.108H524.198H524.287H524.375H524.461H524.546H524.63H524.713H524.795H524.875H524.955H525.033H525.11H525.185H525.26H525.333H525.405H525.476H525.546H525.614C538.593 605.388 550.09 603.795 559.981 599.386C570.1 594.876 577.948 587.684 583.943 577.565C595.439 558.16 600.249 527.563 603.173 483.168C603.953 471.332 596.988 460.849 585.905 456.854C576.692 453.534 566.385 455.213 558.461 459.506C550.545 463.793 543.212 471.752 542.645 482.583C541.079 512.459 538.903 528.236 535.323 536.586C533.709 540.348 532.142 541.761 530.864 542.482C529.381 543.318 527.013 543.939 522.571 543.939H522.485H522.398H522.31H522.221H522.132H522.041H521.95H521.857H521.764H521.67H521.575H521.48H521.383H521.285H521.187H521.088H520.988H520.887H520.785H520.683H520.579H520.475H520.37H520.264H520.158H520.05H519.942H519.833H519.723H519.612H519.501H519.388H519.275H519.161H519.047H518.931H518.815H518.698H518.58H518.462H518.343H518.223H518.102H517.98H517.858H517.735H517.611H517.487H517.362H517.236H517.109H516.982H516.854H516.725H516.596H516.465H516.335H516.203H516.071H515.938H515.804H515.67H515.535H515.399H515.263H515.126H514.988H514.85H514.711H514.571H514.431H514.29H514.148H514.006H513.863H513.72H513.575H513.431H513.285H513.139H512.993H512.846H512.698H512.549H512.4H512.251H512.101H511.95H511.799H511.647H511.494H511.341H511.187H511.033H510.878H510.723H510.567H510.411H510.254H510.096H509.938H509.78H509.621H509.461H509.301H509.14H508.979H508.817H508.655H508.492H508.329H508.165H508.001H507.836H507.671H507.506H507.339H507.173H507.006H506.838H506.67H506.502H506.333H506.163H505.993H505.823H505.652H505.481H505.31H505.137H504.965H504.792H504.619H504.445H504.271H504.096H503.921H503.746H503.57H503.394H503.217H503.04H502.863H502.685H502.507H502.329H502.15H501.971H501.791H501.611H501.431H501.25H501.07H500.888H500.707H500.525H500.342H500.16H499.977H499.793H499.61H499.426H499.242H499.057H498.872H498.687H498.502H498.316H498.13H497.943H497.757H497.57H497.383H497.195H497.008H496.82H496.632H496.443H496.254H496.066H495.876H495.687H495.497H495.307H495.117H494.927H494.736H494.545H494.354H494.163H493.972H493.78H493.588H493.396H493.204H493.012H492.819H492.626H492.433H492.24H492.047H491.853H491.66H491.466H491.272H491.078H490.883H490.689H490.495H490.3H490.105H489.91H489.715H489.52H489.324H489.129H488.933H488.738H488.542H488.346H488.15H487.954H487.758H487.562H487.365H487.169H486.973H486.776H486.579H486.383H486.186H485.989H485.792H485.596H485.399H485.202H485.005H484.808H484.61H484.413H484.216H484.019H483.822H483.625H483.428H483.23H483.033H482.836H482.639H482.442H482.244H482.047H481.85H481.653H481.456H481.259H481.062H480.865H480.668H480.471H480.274H480.077H479.881H479.684H479.487H479.291H479.094H478.898H478.702H478.505H478.309H478.113H477.917H477.721H477.526H477.33H477.134H476.939H476.744H476.548H476.353H476.158H475.964H475.769H475.574H475.38H475.186H474.991H474.798H474.604H474.41H474.217H474.023H473.83H473.637H473.444H473.252H473.059H472.867H472.675H472.483H472.291H472.1H471.909H471.718H471.527H471.336H471.146H470.956H470.766H470.576H470.387H470.198H470.009H469.82H469.631H469.443H469.255H469.068H468.88H468.693H468.506H468.32H468.133H467.947H467.761H467.576H467.391H467.206H467.021H466.837H466.653H466.47H466.286H466.103H465.921H465.738H465.556H465.375H465.193H465.012H464.832H464.651H464.471H464.292H464.113H463.934H463.755H463.577H463.4H463.222H463.045H462.869H462.693H462.517H462.341H462.166H461.992H461.818H461.644H461.47H461.298H461.125H460.953H460.781H460.61H460.439H460.269H460.099H459.93H459.761H459.592H459.424H459.257H459.09H458.923H458.757H458.591H458.426H458.261H458.097H457.933H457.77H457.607H457.445H457.283H457.122H456.961H456.801H456.641H456.482H456.324H456.166H456.008H455.851H455.695H455.539H455.383H455.229H455.074H454.921H454.768H454.615H454.463H454.312H454.161H454.011H453.861H453.712H453.564H453.416H453.269H453.122H452.976H452.831H452.686H452.542H452.398H452.256H452.113H451.972H451.831H451.69H451.551H451.412H451.273H451.136H450.999H450.862H450.726H450.591H450.457H450.323H450.19H450.058H449.926H449.796H449.665H449.536H449.407H449.279H449.152H449.025H448.899H448.774H448.649H448.525H448.402H448.28H448.159H448.038H447.918H447.799H447.68H447.562H447.445H447.329H447.214H447.099H446.985H446.872H446.76H446.648H446.537H446.427H446.318H446.21H446.102H445.996H445.89H445.785H445.681H445.577H445.475H445.373H445.272H445.172H445.073H444.974H444.877H444.78H444.684H444.589H444.495H444.402H444.31H444.218H444.128H444.038H443.949H443.862H443.775H443.688H443.603H443.519H443.436H443.353H443.272H443.191H443.111H443.033H442.955H442.878H442.802H442.727H442.653H442.58H442.508H442.437H442.367H442.297H442.229C436.456 543.939 432.421 543.669 429.536 543.116C426.691 542.57 425.679 541.877 425.318 541.555C424.65 540.959 423.231 538.967 423.231 528.461V323.637ZM117.278 61.8032C98.927 68.4124 91.7119 90.0755 101.199 106.569C120.901 140.821 139.421 179.45 150.703 210.664C157.039 228.192 176.886 238.641 195.075 231.275C210.14 225.174 218.819 208.352 212.895 192.314C199.631 156.398 176.436 111.413 152.796 73.8523C145.229 61.8306 130.372 57.0873 117.278 61.8032ZM521.141 57.3501C503.828 50.8782 484.905 59.8489 478.095 76.5699C463.124 113.329 442.204 155.975 423.049 189.198C413.934 205.007 420.324 225.858 437.685 232.949C450.748 238.285 466.018 233.813 473.716 221.598C494.813 188.123 518.623 143.931 539.151 102.663C547.867 85.14 539.31 64.142 521.141 57.3501Z" fill="white"/>
<path d="M423.231 323.637C423.231 322.691 423.19 321.754 423.109 320.828H566.58C583.549 320.828 597.305 307.072 597.305 290.104C597.305 273.135 583.549 259.379 566.58 259.379H345.933V57.1287C345.933 39.3845 331.548 25 313.804 25C296.06 25 281.676 39.3845 281.676 57.1287V259.379H65.8974C48.9288 259.379 35.173 273.135 35.173 290.104C35.173 307.072 48.9288 320.828 65.8974 320.828H197.664C197.351 322.198 197.121 323.601 196.979 325.029C192.028 375.069 183.826 417.762 163.932 453.261C144.233 488.411 112.613 517.286 59.227 538.73C49.2206 542.75 43.2478 551.719 40.9828 560.825C38.7224 569.912 39.7858 580.437 45.3585 588.873C52.7656 600.086 66.3575 604.798 79.1626 600.029C147.295 574.65 190.403 538.296 217.854 492.158C245.121 446.33 256.437 391.663 262.625 330.634C262.968 327.251 262.782 323.958 262.139 320.828H359.705C359.624 321.754 359.583 322.691 359.583 323.637V528.461C359.583 554.848 362.901 575.288 376.048 588.507C389.2 601.73 409.847 605.388 437.36 605.388H437.425H437.491H437.558H437.627H437.697H437.768H437.84H437.913H437.988H438.064H438.141H438.219H438.299H438.379H438.461H438.544H438.628H438.714H438.8H438.888H438.977H439.067H439.158H439.251H439.344H439.439H439.534H439.631H439.729H439.828H439.928H440.03H440.132H440.235H440.34H440.446H440.552H440.66H440.769H440.879H440.99H441.102H441.215H441.329H441.444H441.56H441.678H441.796H441.915H442.035H442.157H442.279H442.402H442.527H442.652H442.778H442.905H443.034H443.163H443.293H443.424H443.556H443.689H443.823H443.958H444.094H444.231H444.369H444.507H444.647H444.787H444.929H445.071H445.214H445.358H445.503H445.649H445.796H445.944H446.092H446.241H446.392H446.543H446.694H446.847H447.001H447.155H447.31H447.467H447.623H447.781H447.94H448.099H448.259H448.42H448.582H448.744H448.908H449.072H449.237H449.402H449.568H449.736H449.903H450.072H450.241H450.412H450.582H450.754H450.926H451.099H451.273H451.447H451.622H451.798H451.975H452.152H452.33H452.509H452.688H452.868H453.048H453.229H453.411H453.594H453.777H453.961H454.145H454.331H454.516H454.703H454.89H455.077H455.265H455.454H455.643H455.833H456.024H456.215H456.407H456.599H456.792H456.985H457.179H457.374H457.569H457.764H457.961H458.157H458.354H458.552H458.75H458.949H459.148H459.348H459.549H459.749H459.951H460.152H460.354H460.557H460.76H460.964H461.168H461.373H461.578H461.783H461.989H462.195H462.402H462.609H462.817H463.025H463.233H463.442H463.651H463.861H464.071H464.281H464.492H464.703H464.915H465.127H465.339H465.552H465.764H465.978H466.191H466.405H466.62H466.835H467.049H467.265H467.48H467.696H467.913H468.129H468.346H468.563H468.78H468.998H469.216H469.434H469.653H469.872H470.091H470.31H470.529H470.749H470.969H471.189H471.41H471.63H471.851H472.072H472.294H472.515H472.737H472.959H473.181H473.403H473.625H473.848H474.071H474.294H474.517H474.74H474.963H475.187H475.411H475.634H475.858H476.082H476.307H476.531H476.755H476.98H477.204H477.429H477.654H477.879H478.104H478.329H478.554H478.779H479.004H479.23H479.455H479.68H479.906H480.131H480.357H480.582H480.808H481.033H481.259H481.484H481.71H481.936H482.161H482.387H482.612H482.838H483.063H483.289H483.514H483.739H483.965H484.19H484.415H484.64H484.865H485.09H485.315H485.54H485.765H485.99H486.214H486.439H486.663H486.888H487.112H487.336H487.56H487.783H488.007H488.231H488.454H488.677H488.9H489.123H489.346H489.569H489.791H490.013H490.235H490.457H490.679H490.9H491.121H491.342H491.563H491.784H492.004H492.225H492.444H492.664H492.884H493.103H493.322H493.541H493.759H493.977H494.195H494.413H494.63H494.847H495.064H495.28H495.497H495.713H495.928H496.143H496.358H496.573H496.787H497.001H497.215H497.428H497.641H497.854H498.066H498.278H498.489H498.7H498.911H499.121H499.331H499.541H499.75H499.959H500.167H500.375H500.583H500.79H500.996H501.203H501.409H501.614H501.819H502.023H502.227H502.431H502.634H502.837H503.039H503.24H503.442H503.642H503.843H504.042H504.241H504.44H504.638H504.836H505.033H505.23H505.426H505.621H505.816H506.011H506.205H506.398H506.591H506.783H506.975H507.166H507.356H507.546H507.735H507.924H508.112H508.299H508.486H508.673H508.858H509.043H509.228H509.411H509.594H509.777H509.959H510.14H510.32H510.5H510.679H510.858H511.036H511.213H511.389H511.565H511.74H511.914H512.088H512.261H512.433H512.604H512.775H512.945H513.114H513.283H513.451H513.618H513.784H513.949H514.114H514.278H514.441H514.604H514.765H514.926H515.086H515.245H515.404H515.561H515.718H515.874H516.029H516.184H516.337H516.49H516.641H516.792H516.942H517.092H517.24H517.387H517.534H517.68H517.825H517.969H518.112H518.254H518.395H518.535H518.675H518.813H518.951H519.088H519.223H519.358H519.492H519.625H519.757H519.888H520.018H520.147H520.275H520.402H520.528H520.654H520.778H520.901H521.023H521.144H521.264H521.384H521.502H521.619H521.735H521.85H521.964H522.077H522.189H522.299H522.409H522.518H522.626H522.732H522.838H522.942H523.045H523.147H523.249H523.349H523.448H523.545H523.642H523.738H523.832H523.925H524.017H524.108H524.198H524.287H524.375H524.461H524.546H524.63H524.713H524.795H524.875H524.955H525.033H525.11H525.185H525.26H525.333H525.405H525.476H525.546H525.614C538.593 605.388 550.09 603.795 559.981 599.386C570.1 594.876 577.948 587.684 583.943 577.565C595.439 558.16 600.249 527.563 603.173 483.168C603.953 471.332 596.988 460.849 585.905 456.854C576.692 453.534 566.385 455.213 558.461 459.506C550.545 463.793 543.212 471.752 542.645 482.583C541.079 512.459 538.903 528.236 535.323 536.586C533.709 540.348 532.142 541.761 530.864 542.482C529.381 543.318 527.013 543.939 522.571 543.939H522.485H522.398H522.31H522.221H522.132H522.041H521.95H521.857H521.764H521.67H521.575H521.48H521.383H521.285H521.187H521.088H520.988H520.887H520.785H520.683H520.579H520.475H520.37H520.264H520.158H520.05H519.942H519.833H519.723H519.612H519.501H519.388H519.275H519.161H519.047H518.931H518.815H518.698H518.58H518.462H518.343H518.223H518.102H517.98H517.858H517.735H517.611H517.487H517.362H517.236H517.109H516.982H516.854H516.725H516.596H516.465H516.335H516.203H516.071H515.938H515.804H515.67H515.535H515.399H515.263H515.126H514.988H514.85H514.711H514.571H514.431H514.29H514.148H514.006H513.863H513.72H513.575H513.431H513.285H513.139H512.993H512.846H512.698H512.549H512.4H512.251H512.101H511.95H511.799H511.647H511.494H511.341H511.187H511.033H510.878H510.723H510.567H510.411H510.254H510.096H509.938H509.78H509.621H509.461H509.301H509.14H508.979H508.817H508.655H508.492H508.329H508.165H508.001H507.836H507.671H507.506H507.339H507.173H507.006H506.838H506.67H506.502H506.333H506.163H505.993H505.823H505.652H505.481H505.31H505.137H504.965H504.792H504.619H504.445H504.271H504.096H503.921H503.746H503.57H503.394H503.217H503.04H502.863H502.685H502.507H502.329H502.15H501.971H501.791H501.611H501.431H501.25H501.07H500.888H500.707H500.525H500.342H500.16H499.977H499.793H499.61H499.426H499.242H499.057H498.872H498.687H498.502H498.316H498.13H497.943H497.757H497.57H497.383H497.195H497.008H496.82H496.632H496.443H496.254H496.066H495.876H495.687H495.497H495.307H495.117H494.927H494.736H494.545H494.354H494.163H493.972H493.78H493.588H493.396H493.204H493.012H492.819H492.626H492.433H492.24H492.047H491.853H491.66H491.466H491.272H491.078H490.883H490.689H490.495H490.3H490.105H489.91H489.715H489.52H489.324H489.129H488.933H488.738H488.542H488.346H488.15H487.954H487.758H487.562H487.365H487.169H486.973H486.776H486.579H486.383H486.186H485.989H485.792H485.596H485.399H485.202H485.005H484.808H484.61H484.413H484.216H484.019H483.822H483.625H483.428H483.23H483.033H482.836H482.639H482.442H482.244H482.047H481.85H481.653H481.456H481.259H481.062H480.865H480.668H480.471H480.274H480.077H479.881H479.684H479.487H479.291H479.094H478.898H478.702H478.505H478.309H478.113H477.917H477.721H477.526H477.33H477.134H476.939H476.744H476.548H476.353H476.158H475.964H475.769H475.574H475.38H475.186H474.991H474.798H474.604H474.41H474.217H474.023H473.83H473.637H473.444H473.252H473.059H472.867H472.675H472.483H472.291H472.1H471.909H471.718H471.527H471.336H471.146H470.956H470.766H470.576H470.387H470.198H470.009H469.82H469.631H469.443H469.255H469.068H468.88H468.693H468.506H468.32H468.133H467.947H467.761H467.576H467.391H467.206H467.021H466.837H466.653H466.47H466.286H466.103H465.921H465.738H465.556H465.375H465.193H465.012H464.832H464.651H464.471H464.292H464.113H463.934H463.755H463.577H463.4H463.222H463.045H462.869H462.693H462.517H462.341H462.166H461.992H461.818H461.644H461.47H461.298H461.125H460.953H460.781H460.61H460.439H460.269H460.099H459.93H459.761H459.592H459.424H459.257H459.09H458.923H458.757H458.591H458.426H458.261H458.097H457.933H457.77H457.607H457.445H457.283H457.122H456.961H456.801H456.641H456.482H456.324H456.166H456.008H455.851H455.695H455.539H455.383H455.229H455.074H454.921H454.768H454.615H454.463H454.312H454.161H454.011H453.861H453.712H453.564H453.416H453.269H453.122H452.976H452.831H452.686H452.542H452.398H452.256H452.113H451.972H451.831H451.69H451.551H451.412H451.273H451.136H450.999H450.862H450.726H450.591H450.457H450.323H450.19H450.058H449.926H449.796H449.665H449.536H449.407H449.279H449.152H449.025H448.899H448.774H448.649H448.525H448.402H448.28H448.159H448.038H447.918H447.799H447.68H447.562H447.445H447.329H447.214H447.099H446.985H446.872H446.76H446.648H446.537H446.427H446.318H446.21H446.102H445.996H445.89H445.785H445.681H445.577H445.475H445.373H445.272H445.172H445.073H444.974H444.877H444.78H444.684H444.589H444.495H444.402H444.31H444.218H444.128H444.038H443.949H443.862H443.775H443.688H443.603H443.519H443.436H443.353H443.272H443.191H443.111H443.033H442.955H442.878H442.802H442.727H442.653H442.58H442.508H442.437H442.367H442.297H442.229C436.456 543.939 432.421 543.669 429.536 543.116C426.691 542.57 425.679 541.877 425.318 541.555C424.65 540.959 423.231 538.967 423.231 528.461V323.637ZM117.278 61.8032C98.927 68.4124 91.7119 90.0755 101.199 106.569C120.901 140.821 139.421 179.45 150.703 210.664C157.039 228.192 176.886 238.641 195.075 231.275C210.14 225.174 218.819 208.352 212.895 192.314C199.631 156.398 176.436 111.413 152.796 73.8523C145.229 61.8306 130.372 57.0873 117.278 61.8032ZM521.141 57.3501C503.828 50.8782 484.905 59.8489 478.095 76.5699C463.124 113.329 442.204 155.975 423.049 189.198C413.934 205.007 420.324 225.858 437.685 232.949C450.748 238.285 466.018 233.813 473.716 221.598C494.813 188.123 518.623 143.931 539.151 102.663C547.867 85.14 539.31 64.142 521.141 57.3501Z" stroke="white" stroke-width="18"/>
</g>
<g style="mix-blend-mode:overlay">
<path d="M423.231 323.637C423.231 322.691 423.19 321.754 423.109 320.828H566.58C583.549 320.828 597.305 307.072 597.305 290.104C597.305 273.135 583.549 259.379 566.58 259.379H345.933V57.1287C345.933 39.3845 331.548 25 313.804 25C296.06 25 281.676 39.3845 281.676 57.1287V259.379H65.8974C48.9288 259.379 35.173 273.135 35.173 290.104C35.173 307.072 48.9288 320.828 65.8974 320.828H197.664C197.351 322.198 197.121 323.601 196.979 325.029C192.028 375.069 183.826 417.762 163.932 453.261C144.233 488.411 112.613 517.286 59.227 538.73C49.2206 542.75 43.2478 551.719 40.9828 560.825C38.7224 569.912 39.7858 580.437 45.3585 588.873C52.7656 600.086 66.3575 604.798 79.1626 600.029C147.295 574.65 190.403 538.296 217.854 492.158C245.121 446.33 256.437 391.663 262.625 330.634C262.968 327.251 262.782 323.958 262.139 320.828H359.705C359.624 321.754 359.583 322.691 359.583 323.637V528.461C359.583 554.848 362.901 575.288 376.048 588.507C389.2 601.73 409.847 605.388 437.36 605.388H437.425H437.491H437.558H437.627H437.697H437.768H437.84H437.913H437.988H438.064H438.141H438.219H438.299H438.379H438.461H438.544H438.628H438.714H438.8H438.888H438.977H439.067H439.158H439.251H439.344H439.439H439.534H439.631H439.729H439.828H439.928H440.03H440.132H440.235H440.34H440.446H440.552H440.66H440.769H440.879H440.99H441.102H441.215H441.329H441.444H441.56H441.678H441.796H441.915H442.035H442.157H442.279H442.402H442.527H442.652H442.778H442.905H443.034H443.163H443.293H443.424H443.556H443.689H443.823H443.958H444.094H444.231H444.369H444.507H444.647H444.787H444.929H445.071H445.214H445.358H445.503H445.649H445.796H445.944H446.092H446.241H446.392H446.543H446.694H446.847H447.001H447.155H447.31H447.467H447.623H447.781H447.94H448.099H448.259H448.42H448.582H448.744H448.908H449.072H449.237H449.402H449.568H449.736H449.903H450.072H450.241H450.412H450.582H450.754H450.926H451.099H451.273H451.447H451.622H451.798H451.975H452.152H452.33H452.509H452.688H452.868H453.048H453.229H453.411H453.594H453.777H453.961H454.145H454.331H454.516H454.703H454.89H455.077H455.265H455.454H455.643H455.833H456.024H456.215H456.407H456.599H456.792H456.985H457.179H457.374H457.569H457.764H457.961H458.157H458.354H458.552H458.75H458.949H459.148H459.348H459.549H459.749H459.951H460.152H460.354H460.557H460.76H460.964H461.168H461.373H461.578H461.783H461.989H462.195H462.402H462.609H462.817H463.025H463.233H463.442H463.651H463.861H464.071H464.281H464.492H464.703H464.915H465.127H465.339H465.552H465.764H465.978H466.191H466.405H466.62H466.835H467.049H467.265H467.48H467.696H467.913H468.129H468.346H468.563H468.78H468.998H469.216H469.434H469.653H469.872H470.091H470.31H470.529H470.749H470.969H471.189H471.41H471.63H471.851H472.072H472.294H472.515H472.737H472.959H473.181H473.403H473.625H473.848H474.071H474.294H474.517H474.74H474.963H475.187H475.411H475.634H475.858H476.082H476.307H476.531H476.755H476.98H477.204H477.429H477.654H477.879H478.104H478.329H478.554H478.779H479.004H479.23H479.455H479.68H479.906H480.131H480.357H480.582H480.808H481.033H481.259H481.484H481.71H481.936H482.161H482.387H482.612H482.838H483.063H483.289H483.514H483.739H483.965H484.19H484.415H484.64H484.865H485.09H485.315H485.54H485.765H485.99H486.214H486.439H486.663H486.888H487.112H487.336H487.56H487.783H488.007H488.231H488.454H488.677H488.9H489.123H489.346H489.569H489.791H490.013H490.235H490.457H490.679H490.9H491.121H491.342H491.563H491.784H492.004H492.225H492.444H492.664H492.884H493.103H493.322H493.541H493.759H493.977H494.195H494.413H494.63H494.847H495.064H495.28H495.497H495.713H495.928H496.143H496.358H496.573H496.787H497.001H497.215H497.428H497.641H497.854H498.066H498.278H498.489H498.7H498.911H499.121H499.331H499.541H499.75H499.959H500.167H500.375H500.583H500.79H500.996H501.203H501.409H501.614H501.819H502.023H502.227H502.431H502.634H502.837H503.039H503.24H503.442H503.642H503.843H504.042H504.241H504.44H504.638H504.836H505.033H505.23H505.426H505.621H505.816H506.011H506.205H506.398H506.591H506.783H506.975H507.166H507.356H507.546H507.735H507.924H508.112H508.299H508.486H508.673H508.858H509.043H509.228H509.411H509.594H509.777H509.959H510.14H510.32H510.5H510.679H510.858H511.036H511.213H511.389H511.565H511.74H511.914H512.088H512.261H512.433H512.604H512.775H512.945H513.114H513.283H513.451H513.618H513.784H513.949H514.114H514.278H514.441H514.604H514.765H514.926H515.086H515.245H515.404H515.561H515.718H515.874H516.029H516.184H516.337H516.49H516.641H516.792H516.942H517.092H517.24H517.387H517.534H517.68H517.825H517.969H518.112H518.254H518.395H518.535H518.675H518.813H518.951H519.088H519.223H519.358H519.492H519.625H519.757H519.888H520.018H520.147H520.275H520.402H520.528H520.654H520.778H520.901H521.023H521.144H521.264H521.384H521.502H521.619H521.735H521.85H521.964H522.077H522.189H522.299H522.409H522.518H522.626H522.732H522.838H522.942H523.045H523.147H523.249H523.349H523.448H523.545H523.642H523.738H523.832H523.925H524.017H524.108H524.198H524.287H524.375H524.461H524.546H524.63H524.713H524.795H524.875H524.955H525.033H525.11H525.185H525.26H525.333H525.405H525.476H525.546H525.614C538.593 605.388 550.09 603.795 559.981 599.386C570.1 594.876 577.948 587.684 583.943 577.565C595.439 558.16 600.249 527.563 603.173 483.168C603.953 471.332 596.988 460.849 585.905 456.854C576.692 453.534 566.385 455.213 558.461 459.506C550.545 463.793 543.212 471.752 542.645 482.583C541.079 512.459 538.903 528.236 535.323 536.586C533.709 540.348 532.142 541.761 530.864 542.482C529.381 543.318 527.013 543.939 522.571 543.939H522.485H522.398H522.31H522.221H522.132H522.041H521.95H521.857H521.764H521.67H521.575H521.48H521.383H521.285H521.187H521.088H520.988H520.887H520.785H520.683H520.579H520.475H520.37H520.264H520.158H520.05H519.942H519.833H519.723H519.612H519.501H519.388H519.275H519.161H519.047H518.931H518.815H518.698H518.58H518.462H518.343H518.223H518.102H517.98H517.858H517.735H517.611H517.487H517.362H517.236H517.109H516.982H516.854H516.725H516.596H516.465H516.335H516.203H516.071H515.938H515.804H515.67H515.535H515.399H515.263H515.126H514.988H514.85H514.711H514.571H514.431H514.29H514.148H514.006H513.863H513.72H513.575H513.431H513.285H513.139H512.993H512.846H512.698H512.549H512.4H512.251H512.101H511.95H511.799H511.647H511.494H511.341H511.187H511.033H510.878H510.723H510.567H510.411H510.254H510.096H509.938H509.78H509.621H509.461H509.301H509.14H508.979H508.817H508.655H508.492H508.329H508.165H508.001H507.836H507.671H507.506H507.339H507.173H507.006H506.838H506.67H506.502H506.333H506.163H505.993H505.823H505.652H505.481H505.31H505.137H504.965H504.792H504.619H504.445H504.271H504.096H503.921H503.746H503.57H503.394H503.217H503.04H502.863H502.685H502.507H502.329H502.15H501.971H501.791H501.611H501.431H501.25H501.07H500.888H500.707H500.525H500.342H500.16H499.977H499.793H499.61H499.426H499.242H499.057H498.872H498.687H498.502H498.316H498.13H497.943H497.757H497.57H497.383H497.195H497.008H496.82H496.632H496.443H496.254H496.066H495.876H495.687H495.497H495.307H495.117H494.927H494.736H494.545H494.354H494.163H493.972H493.78H493.588H493.396H493.204H493.012H492.819H492.626H492.433H492.24H492.047H491.853H491.66H491.466H491.272H491.078H490.883H490.689H490.495H490.3H490.105H489.91H489.715H489.52H489.324H489.129H488.933H488.738H488.542H488.346H488.15H487.954H487.758H487.562H487.365H487.169H486.973H486.776H486.579H486.383H486.186H485.989H485.792H485.596H485.399H485.202H485.005H484.808H484.61H484.413H484.216H484.019H483.822H483.625H483.428H483.23H483.033H482.836H482.639H482.442H482.244H482.047H481.85H481.653H481.456H481.259H481.062H480.865H480.668H480.471H480.274H480.077H479.881H479.684H479.487H479.291H479.094H478.898H478.702H478.505H478.309H478.113H477.917H477.721H477.526H477.33H477.134H476.939H476.744H476.548H476.353H476.158H475.964H475.769H475.574H475.38H475.186H474.991H474.798H474.604H474.41H474.217H474.023H473.83H473.637H473.444H473.252H473.059H472.867H472.675H472.483H472.291H472.1H471.909H471.718H471.527H471.336H471.146H470.956H470.766H470.576H470.387H470.198H470.009H469.82H469.631H469.443H469.255H469.068H468.88H468.693H468.506H468.32H468.133H467.947H467.761H467.576H467.391H467.206H467.021H466.837H466.653H466.47H466.286H466.103H465.921H465.738H465.556H465.375H465.193H465.012H464.832H464.651H464.471H464.292H464.113H463.934H463.755H463.577H463.4H463.222H463.045H462.869H462.693H462.517H462.341H462.166H461.992H461.818H461.644H461.47H461.298H461.125H460.953H460.781H460.61H460.439H460.269H460.099H459.93H459.761H459.592H459.424H459.257H459.09H458.923H458.757H458.591H458.426H458.261H458.097H457.933H457.77H457.607H457.445H457.283H457.122H456.961H456.801H456.641H456.482H456.324H456.166H456.008H455.851H455.695H455.539H455.383H455.229H455.074H454.921H454.768H454.615H454.463H454.312H454.161H454.011H453.861H453.712H453.564H453.416H453.269H453.122H452.976H452.831H452.686H452.542H452.398H452.256H452.113H451.972H451.831H451.69H451.551H451.412H451.273H451.136H450.999H450.862H450.726H450.591H450.457H450.323H450.19H450.058H449.926H449.796H449.665H449.536H449.407H449.279H449.152H449.025H448.899H448.774H448.649H448.525H448.402H448.28H448.159H448.038H447.918H447.799H447.68H447.562H447.445H447.329H447.214H447.099H446.985H446.872H446.76H446.648H446.537H446.427H446.318H446.21H446.102H445.996H445.89H445.785H445.681H445.577H445.475H445.373H445.272H445.172H445.073H444.974H444.877H444.78H444.684H444.589H444.495H444.402H444.31H444.218H444.128H444.038H443.949H443.862H443.775H443.688H443.603H443.519H443.436H443.353H443.272H443.191H443.111H443.033H442.955H442.878H442.802H442.727H442.653H442.58H442.508H442.437H442.367H442.297H442.229C436.456 543.939 432.421 543.669 429.536 543.116C426.691 542.57 425.679 541.877 425.318 541.555C424.65 540.959 423.231 538.967 423.231 528.461V323.637ZM117.278 61.8032C98.927 68.4124 91.7119 90.0755 101.199 106.569C120.901 140.821 139.421 179.45 150.703 210.664C157.039 228.192 176.886 238.641 195.075 231.275C210.14 225.174 218.819 208.352 212.895 192.314C199.631 156.398 176.436 111.413 152.796 73.8523C145.229 61.8306 130.372 57.0873 117.278 61.8032ZM521.141 57.3501C503.828 50.8782 484.905 59.8489 478.095 76.5699C463.124 113.329 442.204 155.975 423.049 189.198C413.934 205.007 420.324 225.858 437.685 232.949C450.748 238.285 466.018 233.813 473.716 221.598C494.813 188.123 518.623 143.931 539.151 102.663C547.867 85.14 539.31 64.142 521.141 57.3501Z" fill="white"/>
<path d="M423.231 323.637C423.231 322.691 423.19 321.754 423.109 320.828H566.58C583.549 320.828 597.305 307.072 597.305 290.104C597.305 273.135 583.549 259.379 566.58 259.379H345.933V57.1287C345.933 39.3845 331.548 25 313.804 25C296.06 25 281.676 39.3845 281.676 57.1287V259.379H65.8974C48.9288 259.379 35.173 273.135 35.173 290.104C35.173 307.072 48.9288 320.828 65.8974 320.828H197.664C197.351 322.198 197.121 323.601 196.979 325.029C192.028 375.069 183.826 417.762 163.932 453.261C144.233 488.411 112.613 517.286 59.227 538.73C49.2206 542.75 43.2478 551.719 40.9828 560.825C38.7224 569.912 39.7858 580.437 45.3585 588.873C52.7656 600.086 66.3575 604.798 79.1626 600.029C147.295 574.65 190.403 538.296 217.854 492.158C245.121 446.33 256.437 391.663 262.625 330.634C262.968 327.251 262.782 323.958 262.139 320.828H359.705C359.624 321.754 359.583 322.691 359.583 323.637V528.461C359.583 554.848 362.901 575.288 376.048 588.507C389.2 601.73 409.847 605.388 437.36 605.388H437.425H437.491H437.558H437.627H437.697H437.768H437.84H437.913H437.988H438.064H438.141H438.219H438.299H438.379H438.461H438.544H438.628H438.714H438.8H438.888H438.977H439.067H439.158H439.251H439.344H439.439H439.534H439.631H439.729H439.828H439.928H440.03H440.132H440.235H440.34H440.446H440.552H440.66H440.769H440.879H440.99H441.102H441.215H441.329H441.444H441.56H441.678H441.796H441.915H442.035H442.157H442.279H442.402H442.527H442.652H442.778H442.905H443.034H443.163H443.293H443.424H443.556H443.689H443.823H443.958H444.094H444.231H444.369H444.507H444.647H444.787H444.929H445.071H445.214H445.358H445.503H445.649H445.796H445.944H446.092H446.241H446.392H446.543H446.694H446.847H447.001H447.155H447.31H447.467H447.623H447.781H447.94H448.099H448.259H448.42H448.582H448.744H448.908H449.072H449.237H449.402H449.568H449.736H449.903H450.072H450.241H450.412H450.582H450.754H450.926H451.099H451.273H451.447H451.622H451.798H451.975H452.152H452.33H452.509H452.688H452.868H453.048H453.229H453.411H453.594H453.777H453.961H454.145H454.331H454.516H454.703H454.89H455.077H455.265H455.454H455.643H455.833H456.024H456.215H456.407H456.599H456.792H456.985H457.179H457.374H457.569H457.764H457.961H458.157H458.354H458.552H458.75H458.949H459.148H459.348H459.549H459.749H459.951H460.152H460.354H460.557H460.76H460.964H461.168H461.373H461.578H461.783H461.989H462.195H462.402H462.609H462.817H463.025H463.233H463.442H463.651H463.861H464.071H464.281H464.492H464.703H464.915H465.127H465.339H465.552H465.764H465.978H466.191H466.405H466.62H466.835H467.049H467.265H467.48H467.696H467.913H468.129H468.346H468.563H468.78H468.998H469.216H469.434H469.653H469.872H470.091H470.31H470.529H470.749H470.969H471.189H471.41H471.63H471.851H472.072H472.294H472.515H472.737H472.959H473.181H473.403H473.625H473.848H474.071H474.294H474.517H474.74H474.963H475.187H475.411H475.634H475.858H476.082H476.307H476.531H476.755H476.98H477.204H477.429H477.654H477.879H478.104H478.329H478.554H478.779H479.004H479.23H479.455H479.68H479.906H480.131H480.357H480.582H480.808H481.033H481.259H481.484H481.71H481.936H482.161H482.387H482.612H482.838H483.063H483.289H483.514H483.739H483.965H484.19H484.415H484.64H484.865H485.09H485.315H485.54H485.765H485.99H486.214H486.439H486.663H486.888H487.112H487.336H487.56H487.783H488.007H488.231H488.454H488.677H488.9H489.123H489.346H489.569H489.791H490.013H490.235H490.457H490.679H490.9H491.121H491.342H491.563H491.784H492.004H492.225H492.444H492.664H492.884H493.103H493.322H493.541H493.759H493.977H494.195H494.413H494.63H494.847H495.064H495.28H495.497H495.713H495.928H496.143H496.358H496.573H496.787H497.001H497.215H497.428H497.641H497.854H498.066H498.278H498.489H498.7H498.911H499.121H499.331H499.541H499.75H499.959H500.167H500.375H500.583H500.79H500.996H501.203H501.409H501.614H501.819H502.023H502.227H502.431H502.634H502.837H503.039H503.24H503.442H503.642H503.843H504.042H504.241H504.44H504.638H504.836H505.033H505.23H505.426H505.621H505.816H506.011H506.205H506.398H506.591H506.783H506.975H507.166H507.356H507.546H507.735H507.924H508.112H508.299H508.486H508.673H508.858H509.043H509.228H509.411H509.594H509.777H509.959H510.14H510.32H510.5H510.679H510.858H511.036H511.213H511.389H511.565H511.74H511.914H512.088H512.261H512.433H512.604H512.775H512.945H513.114H513.283H513.451H513.618H513.784H513.949H514.114H514.278H514.441H514.604H514.765H514.926H515.086H515.245H515.404H515.561H515.718H515.874H516.029H516.184H516.337H516.49H516.641H516.792H516.942H517.092H517.24H517.387H517.534H517.68H517.825H517.969H518.112H518.254H518.395H518.535H518.675H518.813H518.951H519.088H519.223H519.358H519.492H519.625H519.757H519.888H520.018H520.147H520.275H520.402H520.528H520.654H520.778H520.901H521.023H521.144H521.264H521.384H521.502H521.619H521.735H521.85H521.964H522.077H522.189H522.299H522.409H522.518H522.626H522.732H522.838H522.942H523.045H523.147H523.249H523.349H523.448H523.545H523.642H523.738H523.832H523.925H524.017H524.108H524.198H524.287H524.375H524.461H524.546H524.63H524.713H524.795H524.875H524.955H525.033H525.11H525.185H525.26H525.333H525.405H525.476H525.546H525.614C538.593 605.388 550.09 603.795 559.981 599.386C570.1 594.876 577.948 587.684 583.943 577.565C595.439 558.16 600.249 527.563 603.173 483.168C603.953 471.332 596.988 460.849 585.905 456.854C576.692 453.534 566.385 455.213 558.461 459.506C550.545 463.793 543.212 471.752 542.645 482.583C541.079 512.459 538.903 528.236 535.323 536.586C533.709 540.348 532.142 541.761 530.864 542.482C529.381 543.318 527.013 543.939 522.571 543.939H522.485H522.398H522.31H522.221H522.132H522.041H521.95H521.857H521.764H521.67H521.575H521.48H521.383H521.285H521.187H521.088H520.988H520.887H520.785H520.683H520.579H520.475H520.37H520.264H520.158H520.05H519.942H519.833H519.723H519.612H519.501H519.388H519.275H519.161H519.047H518.931H518.815H518.698H518.58H518.462H518.343H518.223H518.102H517.98H517.858H517.735H517.611H517.487H517.362H517.236H517.109H516.982H516.854H516.725H516.596H516.465H516.335H516.203H516.071H515.938H515.804H515.67H515.535H515.399H515.263H515.126H514.988H514.85H514.711H514.571H514.431H514.29H514.148H514.006H513.863H513.72H513.575H513.431H513.285H513.139H512.993H512.846H512.698H512.549H512.4H512.251H512.101H511.95H511.799H511.647H511.494H511.341H511.187H511.033H510.878H510.723H510.567H510.411H510.254H510.096H509.938H509.78H509.621H509.461H509.301H509.14H508.979H508.817H508.655H508.492H508.329H508.165H508.001H507.836H507.671H507.506H507.339H507.173H507.006H506.838H506.67H506.502H506.333H506.163H505.993H505.823H505.652H505.481H505.31H505.137H504.965H504.792H504.619H504.445H504.271H504.096H503.921H503.746H503.57H503.394H503.217H503.04H502.863H502.685H502.507H502.329H502.15H501.971H501.791H501.611H501.431H501.25H501.07H500.888H500.707H500.525H500.342H500.16H499.977H499.793H499.61H499.426H499.242H499.057H498.872H498.687H498.502H498.316H498.13H497.943H497.757H497.57H497.383H497.195H497.008H496.82H496.632H496.443H496.254H496.066H495.876H495.687H495.497H495.307H495.117H494.927H494.736H494.545H494.354H494.163H493.972H493.78H493.588H493.396H493.204H493.012H492.819H492.626H492.433H492.24H492.047H491.853H491.66H491.466H491.272H491.078H490.883H490.689H490.495H490.3H490.105H489.91H489.715H489.52H489.324H489.129H488.933H488.738H488.542H488.346H488.15H487.954H487.758H487.562H487.365H487.169H486.973H486.776H486.579H486.383H486.186H485.989H485.792H485.596H485.399H485.202H485.005H484.808H484.61H484.413H484.216H484.019H483.822H483.625H483.428H483.23H483.033H482.836H482.639H482.442H482.244H482.047H481.85H481.653H481.456H481.259H481.062H480.865H480.668H480.471H480.274H480.077H479.881H479.684H479.487H479.291H479.094H478.898H478.702H478.505H478.309H478.113H477.917H477.721H477.526H477.33H477.134H476.939H476.744H476.548H476.353H476.158H475.964H475.769H475.574H475.38H475.186H474.991H474.798H474.604H474.41H474.217H474.023H473.83H473.637H473.444H473.252H473.059H472.867H472.675H472.483H472.291H472.1H471.909H471.718H471.527H471.336H471.146H470.956H470.766H470.576H470.387H470.198H470.009H469.82H469.631H469.443H469.255H469.068H468.88H468.693H468.506H468.32H468.133H467.947H467.761H467.576H467.391H467.206H467.021H466.837H466.653H466.47H466.286H466.103H465.921H465.738H465.556H465.375H465.193H465.012H464.832H464.651H464.471H464.292H464.113H463.934H463.755H463.577H463.4H463.222H463.045H462.869H462.693H462.517H462.341H462.166H461.992H461.818H461.644H461.47H461.298H461.125H460.953H460.781H460.61H460.439H460.269H460.099H459.93H459.761H459.592H459.424H459.257H459.09H458.923H458.757H458.591H458.426H458.261H458.097H457.933H457.77H457.607H457.445H457.283H457.122H456.961H456.801H456.641H456.482H456.324H456.166H456.008H455.851H455.695H455.539H455.383H455.229H455.074H454.921H454.768H454.615H454.463H454.312H454.161H454.011H453.861H453.712H453.564H453.416H453.269H453.122H452.976H452.831H452.686H452.542H452.398H452.256H452.113H451.972H451.831H451.69H451.551H451.412H451.273H451.136H450.999H450.862H450.726H450.591H450.457H450.323H450.19H450.058H449.926H449.796H449.665H449.536H449.407H449.279H449.152H449.025H448.899H448.774H448.649H448.525H448.402H448.28H448.159H448.038H447.918H447.799H447.68H447.562H447.445H447.329H447.214H447.099H446.985H446.872H446.76H446.648H446.537H446.427H446.318H446.21H446.102H445.996H445.89H445.785H445.681H445.577H445.475H445.373H445.272H445.172H445.073H444.974H444.877H444.78H444.684H444.589H444.495H444.402H444.31H444.218H444.128H444.038H443.949H443.862H443.775H443.688H443.603H443.519H443.436H443.353H443.272H443.191H443.111H443.033H442.955H442.878H442.802H442.727H442.653H442.58H442.508H442.437H442.367H442.297H442.229C436.456 543.939 432.421 543.669 429.536 543.116C426.691 542.57 425.679 541.877 425.318 541.555C424.65 540.959 423.231 538.967 423.231 528.461V323.637ZM117.278 61.8032C98.927 68.4124 91.7119 90.0755 101.199 106.569C120.901 140.821 139.421 179.45 150.703 210.664C157.039 228.192 176.886 238.641 195.075 231.275C210.14 225.174 218.819 208.352 212.895 192.314C199.631 156.398 176.436 111.413 152.796 73.8523C145.229 61.8306 130.372 57.0873 117.278 61.8032ZM521.141 57.3501C503.828 50.8782 484.905 59.8489 478.095 76.5699C463.124 113.329 442.204 155.975 423.049 189.198C413.934 205.007 420.324 225.858 437.685 232.949C450.748 238.285 466.018 233.813 473.716 221.598C494.813 188.123 518.623 143.931 539.151 102.663C547.867 85.14 539.31 64.142 521.141 57.3501Z" stroke="white" stroke-width="18"/>
</g>
<g style="mix-blend-mode:overlay">
<path d="M423.231 323.637C423.231 322.691 423.19 321.754 423.109 320.828H566.58C583.549 320.828 597.305 307.072 597.305 290.104C597.305 273.135 583.549 259.379 566.58 259.379H345.933V57.1287C345.933 39.3845 331.548 25 313.804 25C296.06 25 281.676 39.3845 281.676 57.1287V259.379H65.8974C48.9288 259.379 35.173 273.135 35.173 290.104C35.173 307.072 48.9288 320.828 65.8974 320.828H197.664C197.351 322.198 197.121 323.601 196.979 325.029C192.028 375.069 183.826 417.762 163.932 453.261C144.233 488.411 112.613 517.286 59.227 538.73C49.2206 542.75 43.2478 551.719 40.9828 560.825C38.7224 569.912 39.7858 580.437 45.3585 588.873C52.7656 600.086 66.3575 604.798 79.1626 600.029C147.295 574.65 190.403 538.296 217.854 492.158C245.121 446.33 256.437 391.663 262.625 330.634C262.968 327.251 262.782 323.958 262.139 320.828H359.705C359.624 321.754 359.583 322.691 359.583 323.637V528.461C359.583 554.848 362.901 575.288 376.048 588.507C389.2 601.73 409.847 605.388 437.36 605.388H437.425H437.491H437.558H437.627H437.697H437.768H437.84H437.913H437.988H438.064H438.141H438.219H438.299H438.379H438.461H438.544H438.628H438.714H438.8H438.888H438.977H439.067H439.158H439.251H439.344H439.439H439.534H439.631H439.729H439.828H439.928H440.03H440.132H440.235H440.34H440.446H440.552H440.66H440.769H440.879H440.99H441.102H441.215H441.329H441.444H441.56H441.678H441.796H441.915H442.035H442.157H442.279H442.402H442.527H442.652H442.778H442.905H443.034H443.163H443.293H443.424H443.556H443.689H443.823H443.958H444.094H444.231H444.369H444.507H444.647H444.787H444.929H445.071H445.214H445.358H445.503H445.649H445.796H445.944H446.092H446.241H446.392H446.543H446.694H446.847H447.001H447.155H447.31H447.467H447.623H447.781H447.94H448.099H448.259H448.42H448.582H448.744H448.908H449.072H449.237H449.402H449.568H449.736H449.903H450.072H450.241H450.412H450.582H450.754H450.926H451.099H451.273H451.447H451.622H451.798H451.975H452.152H452.33H452.509H452.688H452.868H453.048H453.229H453.411H453.594H453.777H453.961H454.145H454.331H454.516H454.703H454.89H455.077H455.265H455.454H455.643H455.833H456.024H456.215H456.407H456.599H456.792H456.985H457.179H457.374H457.569H457.764H457.961H458.157H458.354H458.552H458.75H458.949H459.148H459.348H459.549H459.749H459.951H460.152H460.354H460.557H460.76H460.964H461.168H461.373H461.578H461.783H461.989H462.195H462.402H462.609H462.817H463.025H463.233H463.442H463.651H463.861H464.071H464.281H464.492H464.703H464.915H465.127H465.339H465.552H465.764H465.978H466.191H466.405H466.62H466.835H467.049H467.265H467.48H467.696H467.913H468.129H468.346H468.563H468.78H468.998H469.216H469.434H469.653H469.872H470.091H470.31H470.529H470.749H470.969H471.189H471.41H471.63H471.851H472.072H472.294H472.515H472.737H472.959H473.181H473.403H473.625H473.848H474.071H474.294H474.517H474.74H474.963H475.187H475.411H475.634H475.858H476.082H476.307H476.531H476.755H476.98H477.204H477.429H477.654H477.879H478.104H478.329H478.554H478.779H479.004H479.23H479.455H479.68H479.906H480.131H480.357H480.582H480.808H481.033H481.259H481.484H481.71H481.936H482.161H482.387H482.612H482.838H483.063H483.289H483.514H483.739H483.965H484.19H484.415H484.64H484.865H485.09H485.315H485.54H485.765H485.99H486.214H486.439H486.663H486.888H487.112H487.336H487.56H487.783H488.007H488.231H488.454H488.677H488.9H489.123H489.346H489.569H489.791H490.013H490.235H490.457H490.679H490.9H491.121H491.342H491.563H491.784H492.004H492.225H492.444H492.664H492.884H493.103H493.322H493.541H493.759H493.977H494.195H494.413H494.63H494.847H495.064H495.28H495.497H495.713H495.928H496.143H496.358H496.573H496.787H497.001H497.215H497.428H497.641H497.854H498.066H498.278H498.489H498.7H498.911H499.121H499.331H499.541H499.75H499.959H500.167H500.375H500.583H500.79H500.996H501.203H501.409H501.614H501.819H502.023H502.227H502.431H502.634H502.837H503.039H503.24H503.442H503.642H503.843H504.042H504.241H504.44H504.638H504.836H505.033H505.23H505.426H505.621H505.816H506.011H506.205H506.398H506.591H506.783H506.975H507.166H507.356H507.546H507.735H507.924H508.112H508.299H508.486H508.673H508.858H509.043H509.228H509.411H509.594H509.777H509.959H510.14H510.32H510.5H510.679H510.858H511.036H511.213H511.389H511.565H511.74H511.914H512.088H512.261H512.433H512.604H512.775H512.945H513.114H513.283H513.451H513.618H513.784H513.949H514.114H514.278H514.441H514.604H514.765H514.926H515.086H515.245H515.404H515.561H515.718H515.874H516.029H516.184H516.337H516.49H516.641H516.792H516.942H517.092H517.24H517.387H517.534H517.68H517.825H517.969H518.112H518.254H518.395H518.535H518.675H518.813H518.951H519.088H519.223H519.358H519.492H519.625H519.757H519.888H520.018H520.147H520.275H520.402H520.528H520.654H520.778H520.901H521.023H521.144H521.264H521.384H521.502H521.619H521.735H521.85H521.964H522.077H522.189H522.299H522.409H522.518H522.626H522.732H522.838H522.942H523.045H523.147H523.249H523.349H523.448H523.545H523.642H523.738H523.832H523.925H524.017H524.108H524.198H524.287H524.375H524.461H524.546H524.63H524.713H524.795H524.875H524.955H525.033H525.11H525.185H525.26H525.333H525.405H525.476H525.546H525.614C538.593 605.388 550.09 603.795 559.981 599.386C570.1 594.876 577.948 587.684 583.943 577.565C595.439 558.16 600.249 527.563 603.173 483.168C603.953 471.332 596.988 460.849 585.905 456.854C576.692 453.534 566.385 455.213 558.461 459.506C550.545 463.793 543.212 471.752 542.645 482.583C541.079 512.459 538.903 528.236 535.323 536.586C533.709 540.348 532.142 541.761 530.864 542.482C529.381 543.318 527.013 543.939 522.571 543.939H522.485H522.398H522.31H522.221H522.132H522.041H521.95H521.857H521.764H521.67H521.575H521.48H521.383H521.285H521.187H521.088H520.988H520.887H520.785H520.683H520.579H520.475H520.37H520.264H520.158H520.05H519.942H519.833H519.723H519.612H519.501H519.388H519.275H519.161H519.047H518.931H518.815H518.698H518.58H518.462H518.343H518.223H518.102H517.98H517.858H517.735H517.611H517.487H517.362H517.236H517.109H516.982H516.854H516.725H516.596H516.465H516.335H516.203H516.071H515.938H515.804H515.67H515.535H515.399H515.263H515.126H514.988H514.85H514.711H514.571H514.431H514.29H514.148H514.006H513.863H513.72H513.575H513.431H513.285H513.139H512.993H512.846H512.698H512.549H512.4H512.251H512.101H511.95H511.799H511.647H511.494H511.341H511.187H511.033H510.878H510.723H510.567H510.411H510.254H510.096H509.938H509.78H509.621H509.461H509.301H509.14H508.979H508.817H508.655H508.492H508.329H508.165H508.001H507.836H507.671H507.506H507.339H507.173H507.006H506.838H506.67H506.502H506.333H506.163H505.993H505.823H505.652H505.481H505.31H505.137H504.965H504.792H504.619H504.445H504.271H504.096H503.921H503.746H503.57H503.394H503.217H503.04H502.863H502.685H502.507H502.329H502.15H501.971H501.791H501.611H501.431H501.25H501.07H500.888H500.707H500.525H500.342H500.16H499.977H499.793H499.61H499.426H499.242H499.057H498.872H498.687H498.502H498.316H498.13H497.943H497.757H497.57H497.383H497.195H497.008H496.82H496.632H496.443H496.254H496.066H495.876H495.687H495.497H495.307H495.117H494.927H494.736H494.545H494.354H494.163H493.972H493.78H493.588H493.396H493.204H493.012H492.819H492.626H492.433H492.24H492.047H491.853H491.66H491.466H491.272H491.078H490.883H490.689H490.495H490.3H490.105H489.91H489.715H489.52H489.324H489.129H488.933H488.738H488.542H488.346H488.15H487.954H487.758H487.562H487.365H487.169H486.973H486.776H486.579H486.383H486.186H485.989H485.792H485.596H485.399H485.202H485.005H484.808H484.61H484.413H484.216H484.019H483.822H483.625H483.428H483.23H483.033H482.836H482.639H482.442H482.244H482.047H481.85H481.653H481.456H481.259H481.062H480.865H480.668H480.471H480.274H480.077H479.881H479.684H479.487H479.291H479.094H478.898H478.702H478.505H478.309H478.113H477.917H477.721H477.526H477.33H477.134H476.939H476.744H476.548H476.353H476.158H475.964H475.769H475.574H475.38H475.186H474.991H474.798H474.604H474.41H474.217H474.023H473.83H473.637H473.444H473.252H473.059H472.867H472.675H472.483H472.291H472.1H471.909H471.718H471.527H471.336H471.146H470.956H470.766H470.576H470.387H470.198H470.009H469.82H469.631H469.443H469.255H469.068H468.88H468.693H468.506H468.32H468.133H467.947H467.761H467.576H467.391H467.206H467.021H466.837H466.653H466.47H466.286H466.103H465.921H465.738H465.556H465.375H465.193H465.012H464.832H464.651H464.471H464.292H464.113H463.934H463.755H463.577H463.4H463.222H463.045H462.869H462.693H462.517H462.341H462.166H461.992H461.818H461.644H461.47H461.298H461.125H460.953H460.781H460.61H460.439H460.269H460.099H459.93H459.761H459.592H459.424H459.257H459.09H458.923H458.757H458.591H458.426H458.261H458.097H457.933H457.77H457.607H457.445H457.283H457.122H456.961H456.801H456.641H456.482H456.324H456.166H456.008H455.851H455.695H455.539H455.383H455.229H455.074H454.921H454.768H454.615H454.463H454.312H454.161H454.011H453.861H453.712H453.564H453.416H453.269H453.122H452.976H452.831H452.686H452.542H452.398H452.256H452.113H451.972H451.831H451.69H451.551H451.412H451.273H451.136H450.999H450.862H450.726H450.591H450.457H450.323H450.19H450.058H449.926H449.796H449.665H449.536H449.407H449.279H449.152H449.025H448.899H448.774H448.649H448.525H448.402H448.28H448.159H448.038H447.918H447.799H447.68H447.562H447.445H447.329H447.214H447.099H446.985H446.872H446.76H446.648H446.537H446.427H446.318H446.21H446.102H445.996H445.89H445.785H445.681H445.577H445.475H445.373H445.272H445.172H445.073H444.974H444.877H444.78H444.684H444.589H444.495H444.402H444.31H444.218H444.128H444.038H443.949H443.862H443.775H443.688H443.603H443.519H443.436H443.353H443.272H443.191H443.111H443.033H442.955H442.878H442.802H442.727H442.653H442.58H442.508H442.437H442.367H442.297H442.229C436.456 543.939 432.421 543.669 429.536 543.116C426.691 542.57 425.679 541.877 425.318 541.555C424.65 540.959 423.231 538.967 423.231 528.461V323.637ZM117.278 61.8032C98.927 68.4124 91.7119 90.0755 101.199 106.569C120.901 140.821 139.421 179.45 150.703 210.664C157.039 228.192 176.886 238.641 195.075 231.275C210.14 225.174 218.819 208.352 212.895 192.314C199.631 156.398 176.436 111.413 152.796 73.8523C145.229 61.8306 130.372 57.0873 117.278 61.8032ZM521.141 57.3501C503.828 50.8782 484.905 59.8489 478.095 76.5699C463.124 113.329 442.204 155.975 423.049 189.198C413.934 205.007 420.324 225.858 437.685 232.949C450.748 238.285 466.018 233.813 473.716 221.598C494.813 188.123 518.623 143.931 539.151 102.663C547.867 85.14 539.31 64.142 521.141 57.3501Z" fill="white"/>
<path d="M423.231 323.637C423.231 322.691 423.19 321.754 423.109 320.828H566.58C583.549 320.828 597.305 307.072 597.305 290.104C597.305 273.135 583.549 259.379 566.58 259.379H345.933V57.1287C345.933 39.3845 331.548 25 313.804 25C296.06 25 281.676 39.3845 281.676 57.1287V259.379H65.8974C48.9288 259.379 35.173 273.135 35.173 290.104C35.173 307.072 48.9288 320.828 65.8974 320.828H197.664C197.351 322.198 197.121 323.601 196.979 325.029C192.028 375.069 183.826 417.762 163.932 453.261C144.233 488.411 112.613 517.286 59.227 538.73C49.2206 542.75 43.2478 551.719 40.9828 560.825C38.7224 569.912 39.7858 580.437 45.3585 588.873C52.7656 600.086 66.3575 604.798 79.1626 600.029C147.295 574.65 190.403 538.296 217.854 492.158C245.121 446.33 256.437 391.663 262.625 330.634C262.968 327.251 262.782 323.958 262.139 320.828H359.705C359.624 321.754 359.583 322.691 359.583 323.637V528.461C359.583 554.848 362.901 575.288 376.048 588.507C389.2 601.73 409.847 605.388 437.36 605.388H437.425H437.491H437.558H437.627H437.697H437.768H437.84H437.913H437.988H438.064H438.141H438.219H438.299H438.379H438.461H438.544H438.628H438.714H438.8H438.888H438.977H439.067H439.158H439.251H439.344H439.439H439.534H439.631H439.729H439.828H439.928H440.03H440.132H440.235H440.34H440.446H440.552H440.66H440.769H440.879H440.99H441.102H441.215H441.329H441.444H441.56H441.678H441.796H441.915H442.035H442.157H442.279H442.402H442.527H442.652H442.778H442.905H443.034H443.163H443.293H443.424H443.556H443.689H443.823H443.958H444.094H444.231H444.369H444.507H444.647H444.787H444.929H445.071H445.214H445.358H445.503H445.649H445.796H445.944H446.092H446.241H446.392H446.543H446.694H446.847H447.001H447.155H447.31H447.467H447.623H447.781H447.94H448.099H448.259H448.42H448.582H448.744H448.908H449.072H449.237H449.402H449.568H449.736H449.903H450.072H450.241H450.412H450.582H450.754H450.926H451.099H451.273H451.447H451.622H451.798H451.975H452.152H452.33H452.509H452.688H452.868H453.048H453.229H453.411H453.594H453.777H453.961H454.145H454.331H454.516H454.703H454.89H455.077H455.265H455.454H455.643H455.833H456.024H456.215H456.407H456.599H456.792H456.985H457.179H457.374H457.569H457.764H457.961H458.157H458.354H458.552H458.75H458.949H459.148H459.348H459.549H459.749H459.951H460.152H460.354H460.557H460.76H460.964H461.168H461.373H461.578H461.783H461.989H462.195H462.402H462.609H462.817H463.025H463.233H463.442H463.651H463.861H464.071H464.281H464.492H464.703H464.915H465.127H465.339H465.552H465.764H465.978H466.191H466.405H466.62H466.835H467.049H467.265H467.48H467.696H467.913H468.129H468.346H468.563H468.78H468.998H469.216H469.434H469.653H469.872H470.091H470.31H470.529H470.749H470.969H471.189H471.41H471.63H471.851H472.072H472.294H472.515H472.737H472.959H473.181H473.403H473.625H473.848H474.071H474.294H474.517H474.74H474.963H475.187H475.411H475.634H475.858H476.082H476.307H476.531H476.755H476.98H477.204H477.429H477.654H477.879H478.104H478.329H478.554H478.779H479.004H479.23H479.455H479.68H479.906H480.131H480.357H480.582H480.808H481.033H481.259H481.484H481.71H481.936H482.161H482.387H482.612H482.838H483.063H483.289H483.514H483.739H483.965H484.19H484.415H484.64H484.865H485.09H485.315H485.54H485.765H485.99H486.214H486.439H486.663H486.888H487.112H487.336H487.56H487.783H488.007H488.231H488.454H488.677H488.9H489.123H489.346H489.569H489.791H490.013H490.235H490.457H490.679H490.9H491.121H491.342H491.563H491.784H492.004H492.225H492.444H492.664H492.884H493.103H493.322H493.541H493.759H493.977H494.195H494.413H494.63H494.847H495.064H495.28H495.497H495.713H495.928H496.143H496.358H496.573H496.787H497.001H497.215H497.428H497.641H497.854H498.066H498.278H498.489H498.7H498.911H499.121H499.331H499.541H499.75H499.959H500.167H500.375H500.583H500.79H500.996H501.203H501.409H501.614H501.819H502.023H502.227H502.431H502.634H502.837H503.039H503.24H503.442H503.642H503.843H504.042H504.241H504.44H504.638H504.836H505.033H505.23H505.426H505.621H505.816H506.011H506.205H506.398H506.591H506.783H506.975H507.166H507.356H507.546H507.735H507.924H508.112H508.299H508.486H508.673H508.858H509.043H509.228H509.411H509.594H509.777H509.959H510.14H510.32H510.5H510.679H510.858H511.036H511.213H511.389H511.565H511.74H511.914H512.088H512.261H512.433H512.604H512.775H512.945H513.114H513.283H513.451H513.618H513.784H513.949H514.114H514.278H514.441H514.604H514.765H514.926H515.086H515.245H515.404H515.561H515.718H515.874H516.029H516.184H516.337H516.49H516.641H516.792H516.942H517.092H517.24H517.387H517.534H517.68H517.825H517.969H518.112H518.254H518.395H518.535H518.675H518.813H518.951H519.088H519.223H519.358H519.492H519.625H519.757H519.888H520.018H520.147H520.275H520.402H520.528H520.654H520.778H520.901H521.023H521.144H521.264H521.384H521.502H521.619H521.735H521.85H521.964H522.077H522.189H522.299H522.409H522.518H522.626H522.732H522.838H522.942H523.045H523.147H523.249H523.349H523.448H523.545H523.642H523.738H523.832H523.925H524.017H524.108H524.198H524.287H524.375H524.461H524.546H524.63H524.713H524.795H524.875H524.955H525.033H525.11H525.185H525.26H525.333H525.405H525.476H525.546H525.614C538.593 605.388 550.09 603.795 559.981 599.386C570.1 594.876 577.948 587.684 583.943 577.565C595.439 558.16 600.249 527.563 603.173 483.168C603.953 471.332 596.988 460.849 585.905 456.854C576.692 453.534 566.385 455.213 558.461 459.506C550.545 463.793 543.212 471.752 542.645 482.583C541.079 512.459 538.903 528.236 535.323 536.586C533.709 540.348 532.142 541.761 530.864 542.482C529.381 543.318 527.013 543.939 522.571 543.939H522.485H522.398H522.31H522.221H522.132H522.041H521.95H521.857H521.764H521.67H521.575H521.48H521.383H521.285H521.187H521.088H520.988H520.887H520.785H520.683H520.579H520.475H520.37H520.264H520.158H520.05H519.942H519.833H519.723H519.612H519.501H519.388H519.275H519.161H519.047H518.931H518.815H518.698H518.58H518.462H518.343H518.223H518.102H517.98H517.858H517.735H517.611H517.487H517.362H517.236H517.109H516.982H516.854H516.725H516.596H516.465H516.335H516.203H516.071H515.938H515.804H515.67H515.535H515.399H515.263H515.126H514.988H514.85H514.711H514.571H514.431H514.29H514.148H514.006H513.863H513.72H513.575H513.431H513.285H513.139H512.993H512.846H512.698H512.549H512.4H512.251H512.101H511.95H511.799H511.647H511.494H511.341H511.187H511.033H510.878H510.723H510.567H510.411H510.254H510.096H509.938H509.78H509.621H509.461H509.301H509.14H508.979H508.817H508.655H508.492H508.329H508.165H508.001H507.836H507.671H507.506H507.339H507.173H507.006H506.838H506.67H506.502H506.333H506.163H505.993H505.823H505.652H505.481H505.31H505.137H504.965H504.792H504.619H504.445H504.271H504.096H503.921H503.746H503.57H503.394H503.217H503.04H502.863H502.685H502.507H502.329H502.15H501.971H501.791H501.611H501.431H501.25H501.07H500.888H500.707H500.525H500.342H500.16H499.977H499.793H499.61H499.426H499.242H499.057H498.872H498.687H498.502H498.316H498.13H497.943H497.757H497.57H497.383H497.195H497.008H496.82H496.632H496.443H496.254H496.066H495.876H495.687H495.497H495.307H495.117H494.927H494.736H494.545H494.354H494.163H493.972H493.78H493.588H493.396H493.204H493.012H492.819H492.626H492.433H492.24H492.047H491.853H491.66H491.466H491.272H491.078H490.883H490.689H490.495H490.3H490.105H489.91H489.715H489.52H489.324H489.129H488.933H488.738H488.542H488.346H488.15H487.954H487.758H487.562H487.365H487.169H486.973H486.776H486.579H486.383H486.186H485.989H485.792H485.596H485.399H485.202H485.005H484.808H484.61H484.413H484.216H484.019H483.822H483.625H483.428H483.23H483.033H482.836H482.639H482.442H482.244H482.047H481.85H481.653H481.456H481.259H481.062H480.865H480.668H480.471H480.274H480.077H479.881H479.684H479.487H479.291H479.094H478.898H478.702H478.505H478.309H478.113H477.917H477.721H477.526H477.33H477.134H476.939H476.744H476.548H476.353H476.158H475.964H475.769H475.574H475.38H475.186H474.991H474.798H474.604H474.41H474.217H474.023H473.83H473.637H473.444H473.252H473.059H472.867H472.675H472.483H472.291H472.1H471.909H471.718H471.527H471.336H471.146H470.956H470.766H470.576H470.387H470.198H470.009H469.82H469.631H469.443H469.255H469.068H468.88H468.693H468.506H468.32H468.133H467.947H467.761H467.576H467.391H467.206H467.021H466.837H466.653H466.47H466.286H466.103H465.921H465.738H465.556H465.375H465.193H465.012H464.832H464.651H464.471H464.292H464.113H463.934H463.755H463.577H463.4H463.222H463.045H462.869H462.693H462.517H462.341H462.166H461.992H461.818H461.644H461.47H461.298H461.125H460.953H460.781H460.61H460.439H460.269H460.099H459.93H459.761H459.592H459.424H459.257H459.09H458.923H458.757H458.591H458.426H458.261H458.097H457.933H457.77H457.607H457.445H457.283H457.122H456.961H456.801H456.641H456.482H456.324H456.166H456.008H455.851H455.695H455.539H455.383H455.229H455.074H454.921H454.768H454.615H454.463H454.312H454.161H454.011H453.861H453.712H453.564H453.416H453.269H453.122H452.976H452.831H452.686H452.542H452.398H452.256H452.113H451.972H451.831H451.69H451.551H451.412H451.273H451.136H450.999H450.862H450.726H450.591H450.457H450.323H450.19H450.058H449.926H449.796H449.665H449.536H449.407H449.279H449.152H449.025H448.899H448.774H448.649H448.525H448.402H448.28H448.159H448.038H447.918H447.799H447.68H447.562H447.445H447.329H447.214H447.099H446.985H446.872H446.76H446.648H446.537H446.427H446.318H446.21H446.102H445.996H445.89H445.785H445.681H445.577H445.475H445.373H445.272H445.172H445.073H444.974H444.877H444.78H444.684H444.589H444.495H444.402H444.31H444.218H444.128H444.038H443.949H443.862H443.775H443.688H443.603H443.519H443.436H443.353H443.272H443.191H443.111H443.033H442.955H442.878H442.802H442.727H442.653H442.58H442.508H442.437H442.367H442.297H442.229C436.456 543.939 432.421 543.669 429.536 543.116C426.691 542.57 425.679 541.877 425.318 541.555C424.65 540.959 423.231 538.967 423.231 528.461V323.637ZM117.278 61.8032C98.927 68.4124 91.7119 90.0755 101.199 106.569C120.901 140.821 139.421 179.45 150.703 210.664C157.039 228.192 176.886 238.641 195.075 231.275C210.14 225.174 218.819 208.352 212.895 192.314C199.631 156.398 176.436 111.413 152.796 73.8523C145.229 61.8306 130.372 57.0873 117.278 61.8032ZM521.141 57.3501C503.828 50.8782 484.905 59.8489 478.095 76.5699C463.124 113.329 442.204 155.975 423.049 189.198C413.934 205.007 420.324 225.858 437.685 232.949C450.748 238.285 466.018 233.813 473.716 221.598C494.813 188.123 518.623 143.931 539.151 102.663C547.867 85.14 539.31 64.142 521.141 57.3501Z" stroke="white" stroke-width="18"/>
</g>
</g>
<defs>
<filter id="filter0_di_1_4633" x="0.172974" y="0" width="634.06" height="646.388" filterUnits="userSpaceOnUse" color-interpolation-filters="sRGB">
<feFlood flood-opacity="0" result="BackgroundImageFix"/>
<feColorMatrix in="SourceAlpha" type="matrix" values="0 0 0 0 0 0 0 0 0 0 0 0 0 0 0 0 0 0 127 0" result="hardAlpha"/>
<feOffset dx="-2" dy="8"/>
<feGaussianBlur stdDeviation="12"/>
<feComposite in2="hardAlpha" operator="out"/>
<feColorMatrix type="matrix" values="0 0 0 0 0 0 0 0 0 0 0 0 0 0 0 0 0 0 0.7 0"/>
<feBlend mode="normal" in2="BackgroundImageFix" result="effect1_dropShadow_1_4633"/>
<feBlend mode="normal" in="SourceGraphic" in2="effect1_dropShadow_1_4633" result="shape"/>
<feColorMatrix in="SourceAlpha" type="matrix" values="0 0 0 0 0 0 0 0 0 0 0 0 0 0 0 0 0 0 127 0" result="hardAlpha"/>
<feOffset dx="8" dy="4"/>
<feGaussianBlur stdDeviation="6"/>
<feComposite in2="hardAlpha" operator="arithmetic" k2="-1" k3="1"/>
<feColorMatrix type="matrix" values="0 0 0 0 1 0 0 0 0 1 0 0 0 0 1 0 0 0 0.7 0"/>
<feBlend mode="normal" in2="shape" result="effect2_innerShadow_1_4633"/>
</filter>
</defs>
</svg>
